<svg width="576" height="367" viewBox="0 0 576 367" fill="none" xmlns="http://www.w3.org/2000/svg">
<path fill-rule="evenodd" clip-rule="evenodd" d="M496.086 362.029C492.173 362.095 488.448 360.612 485.73 357.907L296.031 169.218C292.117 165.325 285.66 165.433 281.61 169.462L87.6633 362.376C84.8508 365.175 81.0717 366.785 77.16 366.852L68.5175 366.998C64.6055 367.064 60.881 365.581 58.161 362.875L4.14602 309.147C1.4263 306.444 -0.0640623 302.738 0.00211323 298.846L0.14943 290.25C0.2157 286.358 1.83394 282.6 4.64713 279.801L281.445 4.47577C287.303 -1.35115 296.643 -1.50934 302.306 4.12282L571.855 272.239C574.575 274.945 576.065 278.649 575.998 282.542L575.852 291.138C575.784 295.03 574.167 298.788 571.354 301.586L515.234 357.407C512.419 360.207 508.64 361.817 504.728 361.883L496.086 362.029Z" fill="url(#paint0_linear_42_27)"/>
<path fill-rule="evenodd" clip-rule="evenodd" d="M285.161 302.86C287.502 305.191 291.32 305.17 293.687 302.813L339.76 256.954C340.897 255.822 342.434 255.181 344.033 255.172L347.565 255.153C349.164 255.144 350.694 255.768 351.819 256.887L368.673 273.663C369.797 274.782 370.424 276.305 370.415 277.897L370.394 281.412C370.386 283.004 369.742 284.533 368.605 285.666L293.208 360.713C290.841 363.07 287.023 363.091 284.682 360.761L210.128 286.552C209.003 285.433 208.376 283.91 208.385 282.319L208.405 278.802C208.415 277.211 209.058 275.681 210.195 274.549L227.393 257.431C228.53 256.299 230.067 255.658 231.666 255.649L235.198 255.63C236.797 255.621 238.328 256.245 239.452 257.364L285.161 302.86Z" fill="url(#paint1_linear_42_27)"/>
<defs>
<linearGradient id="paint0_linear_42_27" x1="176.708" y1="105.703" x2="458.349" y2="377.608" gradientUnits="userSpaceOnUse">
<stop stop-color="#B328F6"/>
<stop offset="1" stop-color="#5D39F5"/>
</linearGradient>
<linearGradient id="paint1_linear_42_27" x1="247.005" y1="237.909" x2="331.401" y2="322.698" gradientUnits="userSpaceOnUse">
<stop stop-color="#B328F6"/>
<stop offset="1" stop-color="#5D39F5"/>
</linearGradient>
</defs>
</svg>
