<svg width="391" height="389" viewBox="0 0 391 389" fill="none" xmlns="http://www.w3.org/2000/svg">
<path fill-rule="evenodd" clip-rule="evenodd" d="M301.953 307.718C299.804 305.66 298.586 302.867 298.567 299.954L297.19 157.922C296.65 157.016 111.622 352.145 81.0264 384.421C78.2242 387.377 74.4643 388.937 70.3912 388.972L67.1323 389H12.854C5.34787 388.991 -0.0659945 382.264 0.0734829 376.514L0.00882304 329.896C0.00318407 325.83 1.57775 321.989 4.43249 319.095C38.2661 284.788 225.987 89.8757 225.46 89.6401L81.1187 89.3835C78.0995 89.3886 75.1952 88.2351 73.046 86.1784L68.2987 81.633C66.1499 79.5756 64.9327 76.7829 64.9132 73.8678L64.5212 15.985C64.5003 13.0717 65.681 10.2752 67.8022 8.21111L72.4879 3.65294C74.6092 1.58892 77.4971 0.427538 80.5167 0.422822L377.586 1.29692e-05C383.873 -0.0089245 390.948 4.60247 390.99 10.6706L391 299.821C391.019 302.736 389.839 305.532 387.717 307.596L383.032 312.155C380.91 314.218 378.022 315.379 375.004 315.384L314.774 315.469C311.753 315.475 308.849 314.32 306.7 312.263L301.953 307.718Z" fill="url(#paint0_linear_17_94)"/>
<defs>
<linearGradient id="paint0_linear_17_94" x1="71.4846" y1="111.278" x2="387.725" y2="223.222" gradientUnits="userSpaceOnUse">
<stop stop-color="#B328F6"/>
<stop offset="1" stop-color="#5D39F5"/>
</linearGradient>
</defs>
</svg>
